<svg xmlns="http://www.w3.org/2000/svg" viewBox="0 0 512 512">
  <g fill="#b6322d" transform="translate(46.080 196.705) scale(0.10970 -0.10970) translate(0 -1081)">
    <path transform="translate(0 0)" d="M1169 0H464Q410 0 346.0 19.0Q282 38 227.5 81.5Q173 125 136.5 194.5Q100 264 100 365V717Q100 754 108.5 795.0Q117 836 135.0 876.5Q153 917 181.5 954.0Q210 991 250.5 1019.0Q291 1047 344.0 1064.0Q397 1081 464 1081H1169V821H464Q413 821 386.5 795.0Q360 769 360 715V365Q360 314 387.0 287.0Q414 260 466 260H1169Z"/>
    <path transform="translate(1262 0)" d="M1238 358Q1238 304 1219.0 241.5Q1200 179 1157.5 125.5Q1115 72 1046.5 36.0Q978 0 880 0H411Q357 0 294.5 19.0Q232 38 178.5 80.5Q125 123 89.0 191.5Q53 260 53 358Q53 412 72.0 475.0Q91 538 133.5 591.5Q176 645 244.5 681.0Q313 717 411 717H880V469H411Q358 469 329.0 436.5Q300 404 300 356Q300 305 333.5 276.5Q367 248 413 248H880Q933 248 962.0 280.0Q991 312 991 360V723Q991 774 959.5 804.0Q928 834 880 834H309V1081H880Q934 1081 996.5 1062.0Q1059 1043 1112.5 1000.5Q1166 958 1202.0 889.5Q1238 821 1238 723Z"/>
    <path transform="translate(2600 0)" d="M1167 365Q1167 298 1150.0 244.5Q1133 191 1105.0 150.5Q1077 110 1040.0 81.5Q1003 53 962.5 35.0Q922 17 880.5 8.5Q839 0 802 0H98V260H800Q853 260 880.0 287.0Q907 314 907 365Q902 469 802 469H399Q313 469 253.0 499.0Q193 529 155.5 574.0Q118 619 101.5 671.0Q85 723 85 768Q85 855 116.0 914.5Q147 974 194.0 1011.0Q241 1048 296.0 1064.5Q351 1081 399 1081H1038V821H401Q381 821 369.5 816.5Q358 812 352.5 804.5Q347 797 346.0 788.5Q345 780 345 772Q346 756 351.0 747.0Q356 738 363.5 734.0Q371 730 380.5 729.5Q390 729 399 729H802Q902 729 972.0 693.0Q1042 657 1085.0 602.5Q1128 548 1147.5 484.0Q1167 420 1167 365Z"/>
  </g>
</svg>
